<mxfile host="app.diagrams.net" agent="Mozilla/5.0 (Windows NT 10.0; Win64; x64; rv:131.0) Gecko/20100101 Firefox/131.0" version="24.7.17">
  <diagram name="Page-1" id="e56a1550-8fbb-45ad-956c-1786394a9013">
    <mxGraphModel dx="1434" dy="764" grid="1" gridSize="10" guides="1" tooltips="1" connect="1" arrows="1" fold="1" page="1" pageScale="1" pageWidth="1100" pageHeight="850" background="none" math="0" shadow="0">
      <root>
        <mxCell id="0" />
        <mxCell id="1" parent="0" />
        <mxCell id="cGBCKaHpUUJQmQ3P9Nkw-1" value="&lt;div&gt;&lt;font style=&quot;font-size: 34px;&quot;&gt;&lt;b&gt;TaskManager&lt;/b&gt;&lt;/font&gt;&lt;/div&gt;" style="rounded=0;whiteSpace=wrap;html=1;fontColor=#000033;" vertex="1" parent="1">
          <mxGeometry x="250" y="10" width="600" height="50" as="geometry" />
        </mxCell>
        <mxCell id="cGBCKaHpUUJQmQ3P9Nkw-3" style="edgeStyle=orthogonalEdgeStyle;rounded=0;orthogonalLoop=1;jettySize=auto;html=1;exitX=0.5;exitY=1;exitDx=0;exitDy=0;" edge="1" parent="1" source="cGBCKaHpUUJQmQ3P9Nkw-2" target="cGBCKaHpUUJQmQ3P9Nkw-4">
          <mxGeometry relative="1" as="geometry">
            <mxPoint x="100" y="320" as="targetPoint" />
          </mxGeometry>
        </mxCell>
        <mxCell id="cGBCKaHpUUJQmQ3P9Nkw-2" value="&lt;font style=&quot;font-size: 36px;&quot;&gt;Task&lt;/font&gt;" style="ellipse;whiteSpace=wrap;html=1;" vertex="1" parent="1">
          <mxGeometry x="50" y="190" width="120" height="80" as="geometry" />
        </mxCell>
        <mxCell id="cGBCKaHpUUJQmQ3P9Nkw-4" value="&lt;div style=&quot;font-size: 20px;&quot; align=&quot;left&quot;&gt;&lt;font style=&quot;font-size: 20px;&quot;&gt;1. Обработчик задачи&lt;/font&gt;&lt;/div&gt;&lt;div style=&quot;font-size: 20px;&quot; align=&quot;left&quot;&gt;&lt;font style=&quot;font-size: 20px;&quot;&gt;(Метод, который обрабатывает определённую задачу).&lt;/font&gt;&lt;/div&gt;&lt;div style=&quot;font-size: 20px;&quot; align=&quot;left&quot;&gt;&lt;font style=&quot;font-size: 20px;&quot;&gt;2.Аргументы к задаче.&lt;/font&gt;&lt;/div&gt;&lt;div style=&quot;font-size: 20px;&quot; align=&quot;left&quot;&gt;&lt;font style=&quot;font-size: 20px;&quot;&gt;3.Награда за выполнение.&lt;/font&gt;&lt;/div&gt;&lt;div style=&quot;font-size: 20px;&quot; align=&quot;left&quot;&gt;&lt;font style=&quot;font-size: 20px;&quot;&gt;4.Очередность задачи.&lt;br&gt;&lt;/font&gt;&lt;/div&gt;" style="rounded=1;whiteSpace=wrap;html=1;align=left;" vertex="1" parent="1">
          <mxGeometry y="320" width="220" height="210" as="geometry" />
        </mxCell>
        <mxCell id="cGBCKaHpUUJQmQ3P9Nkw-5" value="&lt;div&gt;&lt;font style=&quot;font-size: 18px;&quot;&gt;robot.taskmanager.addTask&lt;/font&gt;&lt;br&gt;&lt;/div&gt;&lt;div&gt;&lt;font style=&quot;font-size: 21px;&quot;&gt;(Task)&lt;/font&gt;&lt;/div&gt;" style="ellipse;whiteSpace=wrap;html=1;" vertex="1" parent="1">
          <mxGeometry x="160" y="90" width="250" height="130" as="geometry" />
        </mxCell>
        <mxCell id="cGBCKaHpUUJQmQ3P9Nkw-7" style="edgeStyle=orthogonalEdgeStyle;rounded=0;orthogonalLoop=1;jettySize=auto;html=1;entryX=0.348;entryY=0.96;entryDx=0;entryDy=0;entryPerimeter=0;" edge="1" parent="1" source="cGBCKaHpUUJQmQ3P9Nkw-5" target="cGBCKaHpUUJQmQ3P9Nkw-1">
          <mxGeometry relative="1" as="geometry" />
        </mxCell>
        <mxCell id="cGBCKaHpUUJQmQ3P9Nkw-8" style="edgeStyle=orthogonalEdgeStyle;rounded=0;orthogonalLoop=1;jettySize=auto;html=1;entryX=0.004;entryY=0.454;entryDx=0;entryDy=0;entryPerimeter=0;" edge="1" parent="1" source="cGBCKaHpUUJQmQ3P9Nkw-2" target="cGBCKaHpUUJQmQ3P9Nkw-5">
          <mxGeometry relative="1" as="geometry" />
        </mxCell>
        <mxCell id="cGBCKaHpUUJQmQ3P9Nkw-9" value="&lt;font style=&quot;font-size: 29px;&quot;&gt;Task&lt;/font&gt;" style="ellipse;whiteSpace=wrap;html=1;" vertex="1" parent="1">
          <mxGeometry x="660" y="90" width="120" height="80" as="geometry" />
        </mxCell>
        <mxCell id="cGBCKaHpUUJQmQ3P9Nkw-10" value="&lt;div style=&quot;font-size: 17px;&quot;&gt;&lt;font style=&quot;font-size: 17px;&quot;&gt;TaskDeque&lt;/font&gt;&lt;/div&gt;&lt;div style=&quot;font-size: 17px;&quot;&gt;&lt;font style=&quot;font-size: 17px;&quot;&gt;(Очередь содержащая задачи на выполнения)&lt;br&gt;&lt;/font&gt;&lt;/div&gt;" style="rounded=1;whiteSpace=wrap;html=1;" vertex="1" parent="1">
          <mxGeometry x="420" y="180" width="170" height="100" as="geometry" />
        </mxCell>
        <mxCell id="cGBCKaHpUUJQmQ3P9Nkw-11" style="edgeStyle=orthogonalEdgeStyle;rounded=0;orthogonalLoop=1;jettySize=auto;html=1;entryX=0.233;entryY=0.05;entryDx=0;entryDy=0;entryPerimeter=0;" edge="1" parent="1" source="cGBCKaHpUUJQmQ3P9Nkw-1" target="cGBCKaHpUUJQmQ3P9Nkw-9">
          <mxGeometry relative="1" as="geometry" />
        </mxCell>
        <mxCell id="cGBCKaHpUUJQmQ3P9Nkw-12" style="edgeStyle=orthogonalEdgeStyle;rounded=0;orthogonalLoop=1;jettySize=auto;html=1;entryX=0.35;entryY=-0.05;entryDx=0;entryDy=0;entryPerimeter=0;" edge="1" parent="1" source="cGBCKaHpUUJQmQ3P9Nkw-9" target="cGBCKaHpUUJQmQ3P9Nkw-10">
          <mxGeometry relative="1" as="geometry" />
        </mxCell>
        <mxCell id="cGBCKaHpUUJQmQ3P9Nkw-15" style="edgeStyle=orthogonalEdgeStyle;rounded=0;orthogonalLoop=1;jettySize=auto;html=1;entryX=0.5;entryY=1;entryDx=0;entryDy=0;" edge="1" parent="1" source="cGBCKaHpUUJQmQ3P9Nkw-13" target="cGBCKaHpUUJQmQ3P9Nkw-16">
          <mxGeometry relative="1" as="geometry">
            <mxPoint x="270" y="470" as="targetPoint" />
          </mxGeometry>
        </mxCell>
        <mxCell id="cGBCKaHpUUJQmQ3P9Nkw-13" value="&lt;font style=&quot;font-size: 17px;&quot;&gt;robot.taskManager.start()&lt;/font&gt;" style="ellipse;whiteSpace=wrap;html=1;" vertex="1" parent="1">
          <mxGeometry y="600" width="210" height="100" as="geometry" />
        </mxCell>
        <mxCell id="cGBCKaHpUUJQmQ3P9Nkw-18" style="edgeStyle=orthogonalEdgeStyle;rounded=0;orthogonalLoop=1;jettySize=auto;html=1;" edge="1" parent="1" source="cGBCKaHpUUJQmQ3P9Nkw-16" target="cGBCKaHpUUJQmQ3P9Nkw-17">
          <mxGeometry relative="1" as="geometry" />
        </mxCell>
        <mxCell id="cGBCKaHpUUJQmQ3P9Nkw-16" value="&lt;font style=&quot;font-size: 18px;&quot;&gt;TaskDeque&lt;/font&gt;" style="rounded=1;whiteSpace=wrap;html=1;" vertex="1" parent="1">
          <mxGeometry x="240" y="530" width="120" height="50" as="geometry" />
        </mxCell>
        <mxCell id="cGBCKaHpUUJQmQ3P9Nkw-20" style="edgeStyle=orthogonalEdgeStyle;rounded=0;orthogonalLoop=1;jettySize=auto;html=1;entryX=0;entryY=0.5;entryDx=0;entryDy=0;" edge="1" parent="1" source="cGBCKaHpUUJQmQ3P9Nkw-17" target="cGBCKaHpUUJQmQ3P9Nkw-19">
          <mxGeometry relative="1" as="geometry" />
        </mxCell>
        <mxCell id="cGBCKaHpUUJQmQ3P9Nkw-17" value="&lt;font style=&quot;font-size: 21px;&quot;&gt;Task&lt;/font&gt;" style="ellipse;whiteSpace=wrap;html=1;" vertex="1" parent="1">
          <mxGeometry x="250" y="420" width="120" height="70" as="geometry" />
        </mxCell>
        <mxCell id="cGBCKaHpUUJQmQ3P9Nkw-21" style="edgeStyle=orthogonalEdgeStyle;rounded=0;orthogonalLoop=1;jettySize=auto;html=1;entryX=0.5;entryY=0;entryDx=0;entryDy=0;" edge="1" parent="1" source="cGBCKaHpUUJQmQ3P9Nkw-19" target="cGBCKaHpUUJQmQ3P9Nkw-22">
          <mxGeometry relative="1" as="geometry">
            <mxPoint x="560" y="420" as="targetPoint" />
          </mxGeometry>
        </mxCell>
        <mxCell id="cGBCKaHpUUJQmQ3P9Nkw-19" value="&lt;div&gt;&lt;font style=&quot;font-size: 16px;&quot;&gt;executingDeque&lt;/font&gt;&lt;/div&gt;&lt;div&gt;&lt;font style=&quot;font-size: 16px;&quot;&gt;(Очередь с отсортированными по очерёдности задачи)&lt;/font&gt;&lt;/div&gt;" style="rounded=0;whiteSpace=wrap;html=1;" vertex="1" parent="1">
          <mxGeometry x="340" y="300" width="150" height="100" as="geometry" />
        </mxCell>
        <mxCell id="cGBCKaHpUUJQmQ3P9Nkw-22" value="&lt;div style=&quot;font-size: 18px;&quot;&gt;&lt;font style=&quot;font-size: 18px;&quot;&gt;Task.taskHander.execute&lt;/font&gt;&lt;/div&gt;&lt;div style=&quot;font-size: 18px;&quot;&gt;&lt;font style=&quot;font-size: 18px;&quot;&gt;(аргументы),&lt;/font&gt;&lt;/div&gt;&lt;div style=&quot;font-size: 18px;&quot;&gt;&lt;font style=&quot;font-size: 18px;&quot;&gt;(В текущей задаче вызывается её обработчик и аргументы к нему)&lt;br&gt;&lt;/font&gt;&lt;/div&gt;" style="rounded=0;whiteSpace=wrap;html=1;" vertex="1" parent="1">
          <mxGeometry x="440" y="460" width="220" height="160" as="geometry" />
        </mxCell>
        <mxCell id="cGBCKaHpUUJQmQ3P9Nkw-23" value="" style="shape=flexArrow;endArrow=classic;html=1;rounded=0;" edge="1" parent="1">
          <mxGeometry width="50" height="50" relative="1" as="geometry">
            <mxPoint x="660" y="460" as="sourcePoint" />
            <mxPoint x="770" y="360" as="targetPoint" />
          </mxGeometry>
        </mxCell>
        <mxCell id="cGBCKaHpUUJQmQ3P9Nkw-24" value="&lt;font style=&quot;font-size: 18px;&quot;&gt;Если задача выполнилась её выкинет из очереди - executingDeque и добавит в очередь - completedTasks&lt;br&gt;&lt;/font&gt;" style="rounded=0;whiteSpace=wrap;html=1;" vertex="1" parent="1">
          <mxGeometry x="770" y="290" width="250" height="130" as="geometry" />
        </mxCell>
        <mxCell id="cGBCKaHpUUJQmQ3P9Nkw-26" value="" style="shape=flexArrow;endArrow=classic;html=1;rounded=0;exitX=1.014;exitY=0.431;exitDx=0;exitDy=0;exitPerimeter=0;" edge="1" parent="1">
          <mxGeometry width="50" height="50" relative="1" as="geometry">
            <mxPoint x="659.9999999999999" y="620" as="sourcePoint" />
            <mxPoint x="706.92" y="671.04" as="targetPoint" />
            <Array as="points">
              <mxPoint x="696.92" y="661.04" />
            </Array>
          </mxGeometry>
        </mxCell>
        <mxCell id="cGBCKaHpUUJQmQ3P9Nkw-28" style="edgeStyle=orthogonalEdgeStyle;rounded=0;orthogonalLoop=1;jettySize=auto;html=1;entryX=1;entryY=0.5;entryDx=0;entryDy=0;" edge="1" parent="1">
          <mxGeometry relative="1" as="geometry">
            <mxPoint x="490" y="350" as="targetPoint" />
            <mxPoint x="820" y="660" as="sourcePoint" />
            <Array as="points">
              <mxPoint x="820" y="541" />
              <mxPoint x="700" y="541" />
              <mxPoint x="700" y="350" />
            </Array>
          </mxGeometry>
        </mxCell>
        <mxCell id="cGBCKaHpUUJQmQ3P9Nkw-27" value="&lt;div style=&quot;font-size: 16px;&quot;&gt;&lt;font style=&quot;font-size: 16px;&quot;&gt;Если задача не выполнилась, то она останется в очереди executingDeque, до тех пор пока не выполнится&lt;br&gt;&lt;/font&gt;&lt;/div&gt;" style="rounded=0;whiteSpace=wrap;html=1;" vertex="1" parent="1">
          <mxGeometry x="710" y="660" width="220" height="120" as="geometry" />
        </mxCell>
      </root>
    </mxGraphModel>
  </diagram>
</mxfile>
